PathFileType	3	(X/Y/Z)	static.trc																																																																												
DataRate	CameraRate	NumFrames	NumMarkers	Units	OrigDataRate	OrigDataStartFrame	OrigNumFrames																																																																								
100	100	9	26	mm	100	66	260																																																																								
Frame#	Time	RAcromium			LAcromium			C7			Clavicle			VSacral			RASIS			LASIS			RHip			LHip			RKneeLat			RKneeMed			LKneeMed			LKneeLat			LShankFront			RShankFront			RAnkleLat			RAnkleMed			LAnkleMed			LAnkleLat			LToeLat			LToeTip			RToeTip			RToeLat			RHeel			LHeel			T10		
		X1	Y1	Z1	X2	Y2	Z2	X3	Y3	Z3	X4	Y4	Z4	X5	Y5	Z5	X6	Y6	Z6	X7	Y7	Z7	X8	Y8	Z8	X9	Y9	Z9	X10	Y10	Z10	X11	Y11	Z11	X12	Y12	Z12	X13	Y13	Z13	X14	Y14	Z14	X15	Y15	Z15	X16	Y16	Z16	X17	Y17	Z17	X18	Y18	Z18	X19	Y19	Z19	X20	Y20	Z20	X21	Y21	Z21	X22	Y22	Z22	X23	Y23	Z23	X24	Y24	Z24	X25	Y25	Z25	X26	Y26	Z26
66	0.65	883.3313	1558.8915	-446.36743	868.99414	1561.1299	-695.39069	840.59808	1582.8832	-565.19141	993.61774	1481.2607	-580.7121	793.17542	1085.6545	-553.12561	969.45306	1083.6394	-428.9313	974.58136	1078.5253	-697.4057	901.25726	993.45819	-388.82764	893.40759	985.64771	-742.72784	907.60187	533.00232	-411.34131	882.58032	521.12531	-542.04462	902.03522	537.5824	-603.9585	900.62128	546.81329	-723.88361	927.64417	438.97702	-687.69989	949.78827	448.68805	-464.9046	833.18042	82.817268	-420.73016	854.93091	92.185532	-504.34119	854.05414	96.563919	-626.32599	819.92163	74.739182	-704.55597	973.29382	19.355438	-745.35779	1042.8593	23.753431	-680.07819	1044.5457	21.246202	-457.05856	972.58124	19.828033	-379.82251	747.26105	10.240009	-466.26016	748.02136	9.2566071	-650.67462	783.8667	1290.6172	-561.43549
67	0.66	883.30573	1558.8796	-446.44116	869.00586	1561.1426	-695.46051	840.59015	1582.9017	-565.25836	993.60687	1481.2352	-580.7597	793.11035	1085.6754	-553.23828	969.46387	1083.6433	-428.9097	974.52338	1078.5258	-697.42462	901.17755	993.46967	-388.86462	893.3855	985.62366	-742.75568	907.45776	533.02826	-411.39755	882.57544	521.11688	-542.05774	902.05731	537.64215	-603.92126	900.57715	546.80975	-723.94189	927.57196	438.9487	-687.75818	949.75769	448.68411	-464.95544	833.2135	82.798309	-420.73257	854.85339	92.297852	-504.41098	854.19061	96.463127	-626.24939	819.93854	74.655174	-704.58423	973.29437	19.347189	-745.3327	1043.041	23.988104	-679.9566	1044.4819	21.231564	-457.07153	972.63568	19.83584	-379.89368	747.21051	10.278009	-466.25534	748.01031	9.221303	-650.67511	783.87982	1290.5868	-561.53046
68	0.67	883.27686	1558.8688	-446.50842	869.00403	1561.136	-695.52942	840.56372	1582.8995	-565.32452	993.56744	1481.2001	-580.83087	793.05347	1085.7015	-553.34357	969.31323	1083.6469	-428.98318	974.52448	1078.4875	-697.39459	901.05664	993.48077	-388.95932	893.34686	985.65295	-742.8429	907.35974	533.0332	-411.40735	882.37592	521.12122	-542.1142	901.9198	537.62494	-604.02271	900.45154	546.79803	-723.99286	927.47644	438.92639	-687.77118	949.62854	448.67661	-464.97818	833.15656	82.832756	-420.71622	854.86993	92.292557	-504.28271	854.35284	96.738503	-626.28802	819.88141	74.69545	-704.5697	972.98291	19.320021	-745.52875	1042.8702	23.763344	-680.10345	1044.5558	21.153599	-457.10605	972.62921	19.868587	-379.89148	747.21356	10.251866	-466.24878	748.00977	9.2181301	-650.68799	783.76385	1290.6256	-561.63434
69	0.68	883.22021	1558.8795	-446.56775	869.0108	1561.1625	-695.59485	840.54578	1582.9049	-565.40863	993.54352	1481.1871	-580.8728	792.98895	1085.6837	-553.43707	969.20325	1083.5897	-429.00342	974.54095	1078.4377	-697.46014	900.98846	993.49158	-389.02625	893.39136	985.61841	-742.90472	907.22638	533.00555	-411.42661	882.44733	521.0733	-542.1181	901.81555	537.56335	-604.02081	900.38696	546.78308	-724.03711	927.39038	438.93713	-687.81238	949.55121	448.65555	-465.02942	833.17627	82.824615	-420.70523	854.79926	92.372086	-504.29709	854.05054	96.504959	-626.37878	819.88849	74.685242	-704.58789	973.27948	19.421852	-745.32056	1043.0148	23.983734	-679.93353	1044.5337	21.174524	-457.07874	972.57886	19.830166	-379.91522	747.24707	10.229432	-466.24649	748.01642	9.2201529	-650.69073	783.7019	1290.6287	-561.75629
70	0.69	883.19519	1558.8735	-446.65152	869.02728	1561.1814	-695.66656	840.55292	1582.9242	-565.49268	993.54333	1481.2188	-580.94946	792.91522	1085.7238	-553.53094	969.04199	1083.6417	-429.12115	974.48022	1078.4689	-697.56006	900.896	993.51648	-389.10162	893.33997	985.61127	-742.95502	907.17297	533.05127	-411.45462	882.33606	521.14435	-542.14813	901.54364	537.4599	-604.18555	900.37646	546.77106	-724.05609	927.3382	438.91586	-687.86169	949.52368	448.68848	-465.00977	833.14783	82.805466	-420.70212	854.90222	92.220299	-504.29071	854.30023	96.732574	-626.27246	819.8515	74.702255	-704.60614	972.97144	19.321236	-745.51978	1043.0653	24.066185	-679.88812	1044.4703	21.150131	-457.19775	972.57983	19.851662	-379.9455	747.24158	10.224765	-466.23828	748.00763	9.2037907	-650.67676	783.66437	1290.6642	-561.87952
71	0.7	883.16852	1558.8767	-446.7229	869.05206	1561.1954	-695.76495	840.58832	1582.9365	-565.58826	993.49896	1481.178	-581.0838	792.83228	1085.7201	-553.60187	968.99701	1083.621	-429.18008	974.49396	1078.4659	-697.54181	900.75183	993.52441	-389.18353	893.30719	985.65466	-743.0509	907.08862	533.07776	-411.4718	882.20453	521.12695	-542.19232	901.6297	537.57971	-604.18616	900.24518	546.81146	-724.14301	927.25647	438.91299	-687.90698	949.36182	448.67914	-465.04883	833.16382	82.795876	-420.70883	854.8056	92.310852	-504.32367	854.29376	96.712654	-626.34406	819.84253	74.699203	-704.6192	972.95184	19.323368	-745.51776	1043.0587	24.030706	-679.91364	1044.5531	21.237999	-457.09137	972.63043	19.865059	-379.86652	747.16125	10.219058	-466.32452	747.98572	9.2242451	-650.66656	783.76514	1290.6693	-561.98248
72	0.71	883.12726	1558.8849	-446.81247	869.04779	1561.2236	-695.84607	840.58844	1582.9402	-565.68958	993.48016	1481.1613	-581.08563	792.77136	1085.7223	-553.71436	968.98145	1083.6798	-429.18176	974.41473	1078.3851	-697.61865	900.67072	993.55847	-389.25351	893.23639	985.63916	-743.10657	907.02734	533.09546	-411.48743	882.21985	521.08527	-542.25977	901.48541	537.57477	-604.28131	900.21313	546.83325	-724.21643	927.22821	438.93369	-687.92017	949.27905	448.67538	-465.05695	833.16492	82.804253	-420.67645	854.87115	92.20536	-504.32144	854.03595	96.521408	-626.42139	819.84576	74.707245	-704.62616	973.29169	19.369968	-745.35425	1043.0637	24.077904	-679.9165	1044.5469	21.210611	-457.08218	972.6626	19.814009	-379.87701	747.19745	10.193082	-466.32678	748.02301	9.1993484	-650.70172	783.65015	1290.7008	-562.08533
73	0.72	883.11987	1558.8964	-446.90131	869.08783	1561.2117	-695.9231	840.59229	1582.95	-565.76483	993.44202	1481.1366	-581.18121	792.67639	1085.7678	-553.78705	968.75073	1083.6531	-429.30814	974.42468	1078.4015	-697.59912	900.55548	993.54974	-389.31552	893.21045	985.6405	-743.18585	906.95093	533.11792	-411.50113	882.22644	521.11725	-542.20392	901.44403	537.56512	-604.26813	900.21204	546.77649	-724.16675	927.19275	438.94312	-687.90869	949.29938	448.73581	-465.04956	833.15784	82.82019	-420.71054	854.80585	92.352913	-504.32651	854.08667	96.468864	-626.35907	819.84076	74.672005	-704.64337	973.3194	19.364485	-745.37616	1043.0702	24.081181	-679.87726	1044.5093	21.253258	-457.04605	972.63385	19.830927	-379.88934	747.16449	10.19771	-466.34659	748.01447	9.2032948	-650.70123	783.56244	1290.7279	-562.17206
74	0.73	883.0835	1558.9056	-446.97345	869.10443	1561.2356	-696.00726	840.59094	1582.9797	-565.82684	993.45422	1481.1244	-581.18024	792.60394	1085.7445	-553.86121	968.88818	1083.6627	-429.26434	974.32947	1078.4032	-697.72778	900.44757	993.5683	-389.37015	893.14783	985.63019	-743.23114	906.92334	533.12592	-411.49515	882.02753	521.12085	-542.2926	901.46594	537.58868	-604.20984	900.10449	546.83081	-724.26892	927.14618	438.96262	-687.92798	949.20337	448.71042	-465.121	833.25818	82.852386	-420.54913	854.84705	92.285072	-504.25345	853.95911	96.548889	-626.37592	819.82043	74.689995	-704.66376	973.30963	19.361622	-745.31097	1043.074	24.078234	-679.87885	1044.4734	21.305334	-457.05435	972.59351	19.834278	-379.92361	747.21558	10.208253	-466.26904	748.01324	9.2074594	-650.70374	783.58252	1290.7434	-562.25256
